<svg width="24" height="24" viewBox="0 0 24 24" fill="none" xmlns="http://www.w3.org/2000/svg">
<path fill-rule="evenodd" clip-rule="evenodd" d="M14.9998 2C15.8123 1.99995 16.6055 2.24734 17.274 2.70924C17.9424 3.17114 18.4543 3.82565 18.7416 4.58567C19.0289 5.34569 19.0779 6.17518 18.8822 6.96375C18.6864 7.75232 18.2551 8.46258 17.6458 9C18.3911 9.65582 18.8659 10.5654 18.9779 11.5518C19.0899 12.5383 18.8311 13.5311 18.2517 14.3373C17.6723 15.1435 16.8138 15.7055 15.8432 15.9139C14.8725 16.1223 13.859 15.9623 12.9998 15.465V18C12.9997 18.6684 12.8322 19.3261 12.5125 19.9131C12.1928 20.5 11.7311 20.9975 11.1696 21.3601C10.6081 21.7227 9.9647 21.9388 9.29817 21.9886C8.63165 22.0385 7.96326 21.9205 7.35406 21.6456C6.74487 21.3706 6.21429 20.9473 5.81081 20.4144C5.40733 19.8816 5.1438 19.2561 5.04432 18.5952C4.94483 17.9342 5.01256 17.2589 5.2413 16.6309C5.47004 16.0028 5.85251 15.4421 6.35376 15C5.92818 14.6246 5.58735 14.163 5.3539 13.6457C5.12045 13.1285 4.99973 12.5675 4.99976 12C4.99973 11.4325 5.12045 10.8715 5.3539 10.3543C5.58735 9.83704 5.92818 9.37539 6.35376 9C5.74438 8.46258 5.31311 7.75232 5.11735 6.96375C4.92159 6.17518 4.97061 5.34569 5.2579 4.58567C5.54519 3.82565 6.05711 3.17114 6.72556 2.70924C7.394 2.24734 8.18725 1.99995 8.99976 2H14.9998ZM10.9998 16H8.99976C8.6042 16 8.21752 16.1173 7.88862 16.3371C7.55972 16.5568 7.30338 16.8692 7.152 17.2346C7.00063 17.6001 6.96102 18.0022 7.03819 18.3902C7.11536 18.7781 7.30584 19.1345 7.58555 19.4142C7.86525 19.6939 8.22162 19.8844 8.60958 19.9616C8.99754 20.0387 9.39968 19.9991 9.76513 19.8478C10.1306 19.6964 10.4429 19.44 10.6627 19.1111C10.8825 18.7822 10.9998 18.3956 10.9998 18V16ZM10.9998 10H8.99976C8.46933 10 7.96062 10.2107 7.58555 10.5858C7.21047 10.9609 6.99976 11.4696 6.99976 12C6.99976 12.5304 7.21047 13.0391 7.58555 13.4142C7.96062 13.7893 8.46933 14 8.99976 14H10.9998V10ZM14.9998 10C14.4693 10 13.9606 10.2107 13.5855 10.5858C13.2105 10.9609 12.9998 11.4696 12.9998 12C12.9998 12.5304 13.2105 13.0391 13.5855 13.4142C13.9606 13.7893 14.4693 14 14.9998 14C15.5302 14 16.0389 13.7893 16.414 13.4142C16.789 13.0391 16.9998 12.5304 16.9998 12C16.9998 11.4696 16.789 10.9609 16.414 10.5858C16.0389 10.2107 15.5302 10 14.9998 10ZM14.9998 4H12.9998V8H14.9998C15.5187 8.00232 16.0183 7.80281 16.3929 7.44362C16.7675 7.08443 16.9878 6.59368 17.0073 6.07506C17.0268 5.55644 16.8439 5.05055 16.4973 4.66428C16.1507 4.27801 15.6675 4.0416 15.1498 4.005L14.9998 4ZM10.9998 4H8.99976C8.46933 4 7.96062 4.21071 7.58555 4.58579C7.21047 4.96086 6.99976 5.46957 6.99976 6C6.99976 6.53043 7.21047 7.03914 7.58555 7.41421C7.96062 7.78929 8.46933 8 8.99976 8H10.9998V4Z" fill="black"/>
</svg>
